# xmcd CD database file
#
# Track frame offsets:
#	150
#	31105
#	57534
#	78966
#	103058
#	116968
#	133233
#	157419
#	176065
#	195973
#	220501
#	248585
#	274884
#	293590
#	312184
#	327604
#
# Disc length: 4641 seconds
#
# Revision: 0
# Processed by: cddbd v1.5.2PL0 Copyright (c) Steve Scherf et al.
# Submitted via: CDex 1.51
#
DISCID=ee121f10
DTITLE=Various Artist - Oasis Jazz Radio Sampler - Volume 8 No. 6
DYEAR=2008
DGENRE=Jazz
TTITLE0=Stephen Norfleet--Unmet Expectations
TTITLE1=Tommy Lockett--Highland Park Funk
TTITLE2=Missy Raines and The New Hip--Stop, Drop and Wiggle
TTITLE3=Jeff Gaeth--Paradise Park
TTITLE4=The Bonaventure Quartet--Moonlight Falling
TTITLE5=Dixie Dixon--Love For Sale
TTITLE6=Aethillis--Djibouti
TTITLE7=Richard Bliwas--Peace Song
TTITLE8=Michael Dulin--Promised Land
TTITLE9=Ritmo Masacote--Machete Son
TTITLE10=David Ashkenazy Quartet--Resonation Of The Grand Mama
TTITLE11=Cleveland High School Jazz Band--Moments Notice
TTITLE12=Allison Adams Tucker--You Got Me
TTITLE13=The Tiptons Sax Quartet--Fallout
TTITLE14=Mary Crowell--Change Of The Season
TTITLE15=Goat--Armadillo
EXTD=YEAR: 2008
EXTT0=
EXTT1=
EXTT2=
EXTT3=
EXTT4=
EXTT5=
EXTT6=
EXTT7=
EXTT8=
EXTT9=
EXTT10=
EXTT11=
EXTT12=
EXTT13=
EXTT14=
EXTT15=
PLAYORDER=
